<svg width="512" height="512" viewBox="0 0 52 52" fill="none" xmlns="http://www.w3.org/2000/svg">
  <path
    d="M2.14179 17.7241C1.4172 17.8519 0.703274 18.0117 0 18.2034V35.8848C0 36.4493 0.223769 36.9925 0.618029 37.3973C1.08688 36.6197 1.5877 35.8635 2.14179 35.1392V17.7241V17.7241Z"
    fill="#F65700"/>
  <path
    d="M3.27116 37.0136C2.84493 37.61 2.46133 38.2278 2.08838 38.8669L14.5875 51.361C14.9818 51.7551 15.5358 51.9894 16.1006 51.9894C15.8768 51.1054 15.7063 50.2213 15.5785 49.3266L3.27116 37.0136Z"
    fill="#F65700"/>
  <path
    d="M34.29 2.15157C34.1621 1.42728 34.0023 0.713632 33.8105 0.0106392H16.1114C15.5467 0.0106392 15.0032 0.234319 14.5983 0.628421C15.3762 1.09708 16.1327 1.5977 16.8573 2.15157H34.29Z"
    fill="#F65700"/>
  <path
    d="M12.8185 5.44294L13.5005 4.76125L14.9923 3.27006C14.3956 2.844 13.7776 2.46055 13.1382 2.08775L13.0956 2.13036L0.628444 14.5925C0.234184 14.9866 0.0104141 15.5192 0.0104141 16.073V16.0837C0.894835 15.86 1.77926 15.6896 2.68499 15.5618L12.8185 5.44294Z"
    fill="#F65700"/>
  <path
    d="M51.3713 14.6137C50.9025 15.3913 50.4016 16.1475 49.8475 16.8718V34.2762H49.8582C50.5828 34.1484 51.2967 33.9886 52 33.7969V16.1262C52 15.5617 51.7762 15.0185 51.3713 14.6137Z"
    fill="#F65700"/>
  <path
    d="M48.7285 14.9865C49.1547 14.39 49.5383 13.7723 49.9112 13.1332L38.4031 1.64032L37.3908 0.628433C36.9965 0.234331 36.4531 0 35.8777 0C36.1015 0.884066 36.272 1.77878 36.3998 2.6735L48.7285 14.9865Z"
    fill="#F65700"/>
  <path
    d="M17.7202 49.8484C17.8481 50.5834 18.0079 51.2864 18.1997 52H35.8775C36.4422 52 36.9963 51.7763 37.3906 51.3716C36.6127 50.9029 35.8562 50.4023 35.1316 49.8484H17.7202V49.8484Z"
    fill="#F65700"/>
  <path
    d="M37.0177 48.7197C37.6144 49.1457 38.2325 49.5292 38.8718 49.902L51.3709 37.4079C51.7758 37.0031 51.9996 36.4493 51.9996 35.8848C51.1152 36.1084 50.2201 36.2789 49.325 36.4067L37.0177 48.7197Z"
    fill="#F65700"/>
  <path
    d="M36.0266 12.0788C35.6004 13.9534 36.1651 15.9239 37.5291 17.2873L39.7242 19.4602L41.834 21.5585C42.452 21.1751 43.0487 20.7596 43.6241 20.3123L36.7725 12.867L36.0373 12.0361C36.0373 12.0575 36.0266 12.0681 36.0266 12.0788Z"
    fill="#F65700"/>
  <path
    d="M12.3607 32.625L12.2861 32.5505L10.1657 30.4308C9.54763 30.8143 8.95092 31.2297 8.38617 31.6771L10.155 33.4452L11.3804 34.6701L16.0902 39.378C16.0902 39.3674 16.0902 39.3674 16.1009 39.3674C16.4845 37.8762 16.0583 36.2891 14.9607 35.2133L12.3607 32.625Z"
    fill="#F65700"/>
  <path
    d="M40.3316 31.0701V34.0525C41.0456 34.2122 41.7489 34.3401 42.4735 34.4359V31.9328V30.6653V23.5289C42.4628 23.5395 42.4628 23.5395 42.4521 23.5395C41.1308 24.3384 40.3103 25.7657 40.321 27.3101L40.3316 30.8784V30.921V31.0701Z"
    fill="#F65700"/>
  <path
    d="M21.5778 10.2039C21.1942 9.5861 20.7787 8.98962 20.3311 8.41444L18.2106 10.5341L12.6164 16.1048C12.6271 16.1048 12.6271 16.1154 12.6377 16.1154C14.1295 16.4882 15.7172 16.0728 16.7934 14.9757L18.4237 13.346L21.5778 10.2039Z"
    fill="#F65700"/>
  <path
    d="M34.0553 11.6741C34.2151 10.9604 34.343 10.2574 34.4389 9.53313H31.7537H23.5381L23.5488 9.55443C24.3373 10.8646 25.7652 11.6741 27.2996 11.6741H31.0717H34.0553Z"
    fill="#F65700"/>
  <path
    d="M32.5534 39.7083L30.4436 41.8173C30.7952 42.3712 31.1788 42.925 31.5731 43.4576L39.3943 35.8951C39.3837 35.8951 39.3837 35.8845 39.373 35.8845C37.8812 35.5117 36.3042 35.9377 35.228 37.0242L32.6386 39.6231L32.5534 39.7083Z"
    fill="#F65700"/>
  <path
    d="M24.7315 40.3262H21.034H20.9381H17.9545C17.7947 41.0398 17.6562 41.7534 17.5603 42.4671H20.0644H21.4816H28.461C28.4504 42.4564 28.4504 42.4564 28.4504 42.4458C27.6619 41.125 26.266 40.3262 24.7315 40.3262Z"
    fill="#F65700"/>
  <path
    d="M11.668 20.0992V17.9476L9.52618 17.5535V19.1725V20.0566V20.685V20.8768V28.4606C9.53684 28.4499 9.53684 28.4499 9.54749 28.4499C10.8688 27.651 11.6786 26.2344 11.6786 24.7006L11.668 21.0152V20.9407V20.0992Z"
    fill="#F65700"/>
  <path
    d="M33.7998 46.0247C34.1621 46.3868 34.5457 46.7383 34.94 47.0791L35.4514 46.5679L36.4531 45.5666L45.3612 36.6621C44.4022 36.6514 43.4539 36.5875 42.5162 36.481L33.3842 45.6093C33.5228 45.7477 33.6613 45.8862 33.7998 46.0247Z"
    fill="#F65700"/>
  <path
    d="M46.0432 18.2032C46.4055 17.841 46.7572 17.4576 47.0981 17.0635L46.5973 16.5629L45.99 15.9558L36.6769 6.64642C36.6662 7.60505 36.6023 8.55303 36.4957 9.49035L45.6277 18.6186C45.7555 18.4801 45.9047 18.3417 46.0432 18.2032Z"
    fill="#F65700"/>
  <path
    d="M19.8517 4.77175C20.523 5.45344 21.1516 6.17773 21.7271 6.91268H34.6417C34.6417 6.72095 34.6524 6.51858 34.6524 6.32685C34.6524 5.80493 34.6311 5.29367 34.5991 4.77175H34.1835H19.8517V4.77175Z"
    fill="#F65700"/>
  <path
    d="M18.1997 5.97536C17.8374 5.61321 17.4538 5.26172 17.0595 4.92087L16.5481 5.43214L15.0563 6.92334L6.62763 15.3379C7.58664 15.3486 8.535 15.4125 9.4727 15.519L18.6046 6.39077C18.4767 6.2523 18.3382 6.11383 18.1997 5.97536Z"
    fill="#F65700"/>
  <path
    d="M4.7631 17.4152V18.1289V18.8851V32.1568C5.44506 31.4857 6.16964 30.8573 6.90489 30.2821V17.362C6.70243 17.3513 6.51063 17.3513 6.31882 17.3513C5.80735 17.3513 5.28522 17.3833 4.7631 17.4152Z"
    fill="#F65700"/>
  <path
    d="M19.4893 47.2282H32.1589C31.4876 46.5465 30.8589 45.8222 30.2835 45.0873H17.3688C17.3582 45.2897 17.3582 45.4814 17.3582 45.6731C17.3582 46.195 17.3795 46.7063 17.4115 47.2282H18.1361H19.4893Z"
    fill="#F65700"/>
  <path
    d="M5.96707 33.7968C5.60478 34.159 5.25314 34.5424 4.91216 34.9366L5.42363 35.4478L6.60641 36.6301L15.3441 45.3643C15.3547 44.4056 15.4187 43.4577 15.5252 42.5204L6.3933 33.3921C6.24412 33.5199 6.10559 33.6584 5.96707 33.7968Z"
    fill="#F65700"/>
  <path
    d="M47.2367 34.5957V33.8714V32.6571V19.8435C46.5547 20.5145 45.8301 21.1429 45.0949 21.7181V34.6276C45.2973 34.6383 45.4891 34.6383 45.6809 34.6383C46.2031 34.6489 46.7252 34.6276 47.2367 34.5957Z"
    fill="#F65700"/>
</svg>
