<svg width="170" height="64" viewBox="0 0 170 64" fill="none" xmlns="http://www.w3.org/2000/svg">
<path d="M2.6173 21.8838C1.74487 22.0783 0.872433 22.2729 0 22.4674V44.2552C0 44.9361 0.290811 45.617 0.775496 46.1033C1.35712 45.1306 1.93874 44.158 2.6173 43.2826V21.8838Z" fill="#F65700"/>
<path d="M4.06978 45.5195C3.58525 46.2977 3.10073 46.9785 2.61621 47.8539L17.9271 63.2222C18.4116 63.7085 19.0899 64.0003 19.7683 64.0003C19.4776 62.9304 19.2838 61.8604 19.0899 60.7905L4.06978 45.5195Z" fill="#F65700"/>
<path d="M42.0569 2.62621C41.8631 1.75081 41.6693 0.875405 41.4755 0H19.7689C19.0906 0 18.4123 0.291802 17.9277 0.778138C18.8968 1.36174 19.8658 1.94534 20.738 2.62621H42.0569Z" fill="#F65700"/>
<path d="M15.6985 6.71217L16.4737 5.93404L18.4118 4.08596C17.6366 3.59962 16.9583 3.11329 16.0861 2.62695L15.9892 2.72422L0.775234 17.9952C0.290713 18.4815 0 19.0651 0 19.8432C1.06595 19.5514 2.13189 19.3569 3.19784 19.1624L15.6985 6.71217Z" fill="#F65700"/>
<path d="M62.9904 17.9961C62.4087 18.9688 61.8271 19.9414 61.1486 20.8168V42.2156C62.021 42.0211 62.8934 41.8266 63.7659 41.632V19.8442C63.7659 19.1633 63.475 18.4824 62.9904 17.9961Z" fill="#F65700"/>
<path d="M59.7905 18.4808C60.275 17.7026 60.7596 17.0218 61.2441 16.1464L47.0961 2.04261L45.8363 0.778137C45.3518 0.291802 44.6734 0 43.9951 0C44.2858 1.06994 44.4796 2.13988 44.6734 3.20982L59.7905 18.4808Z" fill="#F65700"/>
<path d="M21.8047 61.373C21.9985 62.2485 22.1923 63.1239 22.3861 63.9993H44.0927C44.771 63.9993 45.4493 63.7075 45.9339 63.2211C44.9648 62.6375 43.9958 62.0539 43.1236 61.373H21.8047Z" fill="#F65700"/>
<path d="M45.3506 60.0147C46.1258 60.501 46.8042 60.9874 47.6763 61.4737L62.9872 46.0082C63.4717 45.5219 63.7624 44.841 63.7624 44.1602C62.6965 44.452 61.6305 44.6465 60.5646 44.841L45.3506 60.0147Z" fill="#F65700"/>
<path d="M44.1874 14.8848C43.7029 17.2192 44.3812 19.6509 46.0286 21.3044L48.645 23.9306L51.2614 26.5568C52.0366 26.0705 52.715 25.5842 53.4902 25.0006L45.0595 15.8574L44.1874 14.8848Z" fill="#F65700"/>
<path d="M15.2144 40.1731L12.5979 37.5469C11.8227 38.0332 11.1444 38.5195 10.3691 39.1032L12.501 41.243L13.9546 42.702L19.672 48.4408C20.1565 46.5927 19.575 44.6474 18.3153 43.2856L15.2144 40.1731Z" fill="#F65700"/>
<path d="M49.4199 38.324V42.0201C50.2924 42.2147 51.1648 42.4092 52.0372 42.5065V39.3939V37.8376V28.9863C50.3893 29.959 49.4199 31.7098 49.4199 33.6552V38.0322V38.1294V38.324Z" fill="#F65700"/>
<path d="M26.4531 12.5477C25.9686 11.7696 25.4841 11.0887 24.9026 10.3105L22.2862 12.9368L15.5029 19.8427C17.3441 20.3291 19.2822 19.7455 20.6389 18.481L22.6738 16.4384L26.4531 12.5477Z" fill="#F65700"/>
<path d="M41.7662 14.3938C41.96 13.5184 42.1538 12.643 42.2507 11.7676H38.956H28.8779C29.847 13.4211 31.5913 14.3938 33.4324 14.3938H38.0838H41.7662Z" fill="#F65700"/>
<path d="M39.925 48.8258L37.3086 51.452C37.7931 52.1329 38.1807 52.8138 38.6653 53.4946L40.991 51.452L42.2507 50.1876L48.2588 44.157C46.4176 43.6707 44.4795 44.2543 43.1229 45.5187L39.925 48.8258Z" fill="#F65700"/>
<path d="M30.331 49.6055H25.8734H25.6796H21.9972C21.8034 50.4809 21.6096 51.3563 21.5127 52.2317H24.6136H26.3579H34.8855C33.9164 50.6754 32.2691 49.6055 30.331 49.6055Z" fill="#F65700"/>
<path d="M41.4769 56.6115C41.9615 57.0979 42.3491 57.4869 42.8336 57.9733L43.415 57.3897L44.6748 56.1252L55.625 45.134C54.4621 45.134 53.2993 45.0367 52.1364 44.9395L40.8955 56.2224C41.0893 56.3197 41.2831 56.5143 41.4769 56.6115Z" fill="#F65700"/>
<path d="M56.3971 22.4702C56.8816 21.9838 57.2692 21.5948 57.7537 21.1084L57.1723 20.4275L56.3971 19.6494L44.9624 8.17188C44.9624 9.33908 44.8655 10.5063 44.7686 11.6735L56.0095 22.9565C56.1064 22.762 56.3002 22.5674 56.3971 22.4702Z" fill="#F65700"/>
<path d="M24.3223 5.93125C25.0975 6.70939 25.9696 7.68206 26.648 8.55747H42.5403C42.5403 8.36293 42.5403 8.07113 42.5403 7.77933C42.5403 7.09846 42.5403 6.51485 42.4434 5.83398H41.9588H24.3223V5.93125Z" fill="#F65700"/>
<path d="M22.3836 7.39104C21.8991 6.9047 21.5115 6.51563 21.0269 6.0293L20.3486 6.71017L18.5074 8.55824L8.13867 18.8686C9.30152 18.8686 10.4644 18.9658 11.6272 19.0631L22.8681 7.87737C22.6743 7.68284 22.4805 7.58557 22.3836 7.39104Z" fill="#F65700"/>
<path d="M5.91113 21.4938V22.3692V23.2446V39.4882C6.68663 38.71 7.656 37.8346 8.52843 37.1538V21.3965C8.33456 21.3965 8.04375 21.3965 7.75294 21.3965C7.17131 21.3965 6.49275 21.3965 5.91113 21.4938Z" fill="#F65700"/>
<path d="M23.9348 58.1649H39.4395C38.5673 57.2895 37.7921 56.4141 37.1138 55.4414H21.3184C21.3184 55.6359 21.3184 55.9277 21.3184 56.2195C21.3184 56.9004 21.3184 57.484 21.4153 58.1649H22.2874H23.9348Z" fill="#F65700"/>
<path d="M7.36545 41.6285C6.88093 42.1149 6.49331 42.5039 6.00879 42.9903L6.59021 43.5739L8.04378 45.0329L18.7032 55.7323C18.7032 54.5651 18.8002 53.3979 18.8971 52.2307L7.84997 41.0449C7.65616 41.2395 7.55926 41.434 7.36545 41.6285Z" fill="#F65700"/>
<path d="M57.9496 42.605V41.7296V40.2706V24.416C57.0772 25.2914 56.2047 26.0696 55.2354 26.7504V42.7022C55.4292 42.7022 55.72 42.7022 56.0108 42.7022C56.6894 42.605 57.271 42.605 57.9496 42.605Z" fill="#F65700"/>
<path d="M14.3433 25.8755V24.7083V22.082L11.629 21.5957V23.6383V24.7083V25.4864V25.6809V35.0186C13.277 34.0459 14.2463 32.2951 14.2463 30.447L14.3433 25.8755Z" fill="#F65700"/>
<path d="M80.6847 43.2136V25.0003H73.7295V21.4258H91.372V25.0003H84.4168V43.2136H80.6847Z" fill="#2D2D2D"/>
<path d="M89.3369 43.2158L98.8367 21.2578H102.399L111.899 43.2158H107.828L105.622 37.9391H95.3591L93.1538 43.2158H89.3369ZM96.801 34.5348H104.35L100.618 25.8537L96.801 34.5348Z" fill="#2D2D2D"/>
<path d="M123.01 43.6389C119.617 43.6389 116.903 42.5325 114.867 40.4048C112.746 38.2771 111.729 35.6387 111.729 32.4046V32.3194C111.729 29.1704 112.831 26.5321 114.952 24.3192C117.072 22.1064 119.787 21 123.01 21C124.791 21 126.402 21.2553 127.675 21.766C128.947 22.2766 130.219 22.9575 131.407 23.9788L128.947 26.8725C128.014 26.1065 127.081 25.5108 126.148 25.1703C125.215 24.8299 124.112 24.5746 122.84 24.5746C120.889 24.5746 119.193 25.3405 117.836 26.8725C116.479 28.4045 115.8 30.1917 115.8 32.3194V32.4046C115.8 34.7025 116.479 36.5749 117.836 38.0217C119.193 39.4686 120.974 40.2346 123.179 40.2346C125.215 40.2346 126.996 39.6388 128.438 38.6175V34.5323H122.84V31.1279H132.001V40.2346C129.286 42.4474 126.318 43.6389 123.01 43.6389Z" fill="#2D2D2D"/>
<path d="M135.394 43.2136V21.4258H151.509V24.8301H139.21V30.5324H150.067V34.0219H139.21V39.8944H151.594V43.2987H135.394V43.2136Z" fill="#2D2D2D"/>
<path d="M162.196 43.5538C158.718 43.5538 155.665 42.3623 153.205 40.0643L155.495 37.3409C157.701 39.2132 159.991 40.1494 162.366 40.1494C163.553 40.1494 164.486 39.8941 165.165 39.3835C165.843 38.8728 166.182 38.1919 166.182 37.426V37.3409C166.182 36.5749 165.843 35.894 165.165 35.3834C164.486 34.8727 163.214 34.4472 161.263 34.0216C158.718 33.4259 156.937 32.6599 155.75 31.7237C154.562 30.7875 153.968 29.3406 153.968 27.4683V27.3831C153.968 25.5108 154.647 23.9788 156.089 22.7873C157.531 21.5958 159.227 21 161.433 21C164.401 21 167.031 21.9362 169.321 23.7235L167.285 26.7023C165.249 25.1703 163.299 24.4895 161.348 24.4895C160.245 24.4895 159.397 24.7448 158.718 25.2554C158.04 25.7661 157.785 26.3618 157.785 27.1278V27.298C157.785 28.1491 158.125 28.83 158.803 29.2555C159.482 29.7662 160.839 30.1917 162.959 30.7024C165.419 31.2981 167.2 32.1492 168.303 33.0854C169.406 34.0216 169.999 35.3834 169.999 37.1706V37.2557C169.999 39.2984 169.321 40.8303 167.879 42.0218C166.352 42.958 164.486 43.5538 162.196 43.5538Z" fill="#2D2D2D"/>
</svg>
